<svg width="26" height="25" viewBox="0 0 26 25" fill="none" xmlns="http://www.w3.org/2000/svg">
<path d="M12.2865 24.4956C5.19189 14.2105 3.875 13.1549 3.875 9.375C3.875 4.19731 8.07231 0 13.25 0C18.4277 0 22.625 4.19731 22.625 9.375C22.625 13.1549 21.3081 14.2105 14.2135 24.4956C13.7479 25.1682 12.752 25.1681 12.2865 24.4956ZM13.25 13.2812C15.4074 13.2812 17.1562 11.5324 17.1562 9.375C17.1562 7.21763 15.4074 5.46875 13.25 5.46875C11.0926 5.46875 9.34375 7.21763 9.34375 9.375C9.34375 11.5324 11.0926 13.2812 13.25 13.2812Z" fill="white"/>
</svg>
