<svg width="31" height="27" viewBox="0 0 31 27" fill="none" xmlns="http://www.w3.org/2000/svg">
<path d="M16.5994 0C13.1532 0 10.3494 2.80375 10.3494 6.25C10.3494 9.69625 13.1532 12.5 16.5994 12.5C20.0457 12.5 22.8494 9.69625 22.8494 6.25C22.8494 2.80375 20.0457 0 16.5994 0ZM19.7244 6.875H17.2244V9.375H15.9744V6.875H13.4744V5.625H15.9744V3.125H17.2244V5.625H19.7244V6.875Z" fill="white"/>
<path d="M30.859 15.3238C30.9019 15.2229 30.8544 15.1065 30.753 15.0636L17.2587 9.36481C17.2016 9.34024 17.1399 9.34795 17.0884 9.37541L0.985823 17.2059C0.890174 17.2522 0.850183 17.3659 0.891623 17.4625C0.883673 17.4839 0.875 17.5056 0.875 17.5292V20.9616C0.875 21.0414 0.922703 21.1139 0.996669 21.145L2.95127 21.9704C2.97584 21.9808 3.00162 21.9861 3.02716 21.9861C3.02788 21.9861 3.02812 21.9863 3.02861 21.9863C3.03391 21.9863 3.03897 21.9832 3.04451 21.9829C3.06595 21.9805 3.08691 21.9772 3.10691 21.9687C3.10932 21.9678 3.11172 21.968 3.11413 21.967L4.95167 21.0935C4.97721 21.0814 4.99865 21.0641 5.016 21.0441L6.59961 21.6845V23.3899C6.59961 23.4887 6.67213 23.5665 6.76609 23.582L8.23332 24.2517C8.23428 24.2524 8.23573 24.2519 8.23717 24.2524C8.26126 24.2628 8.28801 24.2691 8.31595 24.2691C8.34366 24.2691 8.36992 24.2635 8.39377 24.2532L10.6028 23.3059C10.6036 23.3056 10.6036 23.3051 10.6043 23.3049L12.2477 23.9706V25.7876C12.2477 25.8712 12.2992 25.9421 12.372 25.9715L14.4931 26.8446C14.5172 26.8547 14.5427 26.8597 14.5687 26.8597C14.5984 26.8597 14.6278 26.8525 14.6555 26.84L16.6373 25.8755C16.6446 25.8722 16.6487 25.8659 16.6556 25.8618C16.6701 25.8524 16.6843 25.8433 16.6956 25.8307C16.7026 25.8235 16.7062 25.8148 16.7118 25.8069C16.7205 25.7943 16.7298 25.7816 16.7351 25.7664C16.7392 25.7551 16.74 25.743 16.7421 25.7305C16.7445 25.7194 16.7494 25.7091 16.7494 25.6968V24.0168L20.3466 22.3113L22.2805 23.0608C22.3029 23.069 22.3272 23.0729 22.3499 23.0734C22.3506 23.0734 22.3508 23.0736 22.3513 23.0736C22.3802 23.0736 22.4082 23.0666 22.4325 23.0555C22.4339 23.0553 22.4351 23.0555 22.4364 23.0548L24.3449 22.1482C24.4437 22.1005 24.4861 21.9825 24.4391 21.8832C24.4334 21.8712 24.4235 21.8625 24.4163 21.8521V20.381L27.2927 19.0159L29.3232 19.6411L29.3304 19.6433C29.349 19.6496 29.3697 19.6513 29.3885 19.6513C29.3894 19.6513 29.3907 19.6505 29.3919 19.6505C29.4015 19.6505 29.4104 19.6479 29.4203 19.646C29.4333 19.6438 29.4465 19.6419 29.4586 19.637C29.4624 19.6356 29.4658 19.6349 29.469 19.6337C29.4711 19.6327 29.473 19.6329 29.4752 19.632L30.7632 19.0053C30.8316 18.9721 30.875 18.9025 30.875 18.8268V15.3929C30.875 15.3688 30.8656 15.3469 30.8574 15.325C30.8572 15.325 30.8587 15.325 30.859 15.3238ZM14.5621 23.0094L11.6982 21.8002L27.4943 14.1184L30.3577 15.3275L14.5621 23.0094ZM17.1919 9.76737L19.2812 10.6499L3.52274 18.3132C3.51094 18.319 3.50226 18.3282 3.49311 18.3356L1.39486 17.45L17.1919 9.76737ZM19.6534 10.8069L21.8383 11.7299L6.0423 19.4124L3.8566 18.4894L19.6534 10.8069ZM22.2103 11.887L24.2623 12.7536L8.46626 20.4355L6.41452 19.5688L22.2103 11.887ZM24.6349 12.9107L27.1225 13.9614L11.3357 21.6389C11.3331 21.6404 11.3311 21.6428 11.3287 21.6442L8.83926 20.5933L24.6349 12.9107ZM1.2724 17.8294L14.3695 23.3599V26.3652L12.6442 25.6552V23.8923C12.6442 23.882 12.6401 23.8726 12.6384 23.8629C12.6502 23.7752 12.6059 23.6875 12.5191 23.6524L8.39592 21.9842C8.31811 21.9529 8.23258 21.976 8.17764 22.0343C8.1403 22.0702 8.11693 22.1203 8.11693 22.1767V23.7636L6.99614 23.2524V21.5741C7.00505 21.4888 6.96048 21.4038 6.87592 21.37L3.11 19.8459C3.01026 19.806 2.89317 19.8546 2.85125 19.9561C2.83679 19.9917 2.83679 20.0278 2.8433 20.0637V21.4958L1.27177 20.8316L1.2724 17.8294ZM3.1969 21.4884V20.3085L4.53739 20.8509L3.1969 21.4884ZM8.51412 23.7706V22.4598L10.0864 23.0963L8.51412 23.7706ZM22.1527 22.586L20.8408 22.0769L22.1527 21.4546V22.586ZM29.1894 19.1844L27.8238 18.7647L29.1894 18.1161V19.1844ZM30.4779 18.704L29.5867 19.1367V17.8022C29.5867 17.7343 29.5518 17.6714 29.4944 17.634C29.4361 17.5981 29.3636 17.5936 29.3024 17.623L24.1241 20.0811C24.0395 20.1208 24 20.2134 24.0188 20.3011V21.8639L22.5491 22.5619V21.2012C22.5491 21.1368 22.5171 21.0831 22.4701 21.0472C22.4154 20.9706 22.3147 20.9395 22.227 20.981L20.2613 21.9131C20.2587 21.914 20.2558 21.9155 20.2536 21.9165L16.4651 23.7133C16.3952 23.7458 16.3518 23.8162 16.3518 23.8928V25.5742L14.7665 26.3452V23.3526L30.4781 15.7115L30.4779 18.704Z" fill="white"/>
</svg>
