<svg width="26" height="25" viewBox="0 0 26 25" fill="none" xmlns="http://www.w3.org/2000/svg">
<path d="M25.875 12.5C25.875 19.4036 20.2786 25 13.375 25C6.47142 25 0.875 19.4036 0.875 12.5C0.875 5.59642 6.47142 0 13.375 0C20.2786 0 25.875 5.59642 25.875 12.5ZM11.9291 19.1186L21.2033 9.84446C21.5182 9.52954 21.5182 9.0189 21.2033 8.70398L20.0629 7.56351C19.7479 7.24854 19.2373 7.24854 18.9223 7.56351L11.3589 15.1269L7.82767 11.5957C7.51275 11.2808 7.00212 11.2808 6.68715 11.5957L5.54667 12.7362C5.23175 13.0511 5.23175 13.5617 5.54667 13.8767L10.7886 19.1186C11.1036 19.4336 11.6142 19.4336 11.9291 19.1186Z" fill="#03A000"/>
</svg>
