<svg width="26" height="25" viewBox="0 0 26 25" fill="none" xmlns="http://www.w3.org/2000/svg">
<path d="M14.4163 9.375H12.333V12.5H9.20801V14.5833H12.333V17.7083H14.4163V14.5833H17.5413V12.5H14.4163V9.375Z" fill="white"/>
<path d="M21.708 5.20833H12.7643L10.9861 3.43021C10.8896 3.33329 10.7748 3.25643 10.6484 3.20405C10.522 3.15167 10.3865 3.1248 10.2497 3.125H5.04134C3.89238 3.125 2.95801 4.05938 2.95801 5.20833V19.7917C2.95801 20.9406 3.89238 21.875 5.04134 21.875H21.708C22.857 21.875 23.7913 20.9406 23.7913 19.7917V7.29167C23.7913 6.14271 22.857 5.20833 21.708 5.20833ZM5.04134 19.7917V7.29167H21.708L21.7101 19.7917H5.04134Z" fill="white"/>
</svg>
