<svg width="26" height="25" viewBox="0 0 26 25" fill="none" xmlns="http://www.w3.org/2000/svg">
<path d="M9.20865 11.4583L9.20865 13.5416L18.5837 13.5416V16.6666L23.792 12.5L18.5837 8.33329L18.5837 11.4583L9.20865 11.4583Z" fill="black"/>
<path d="M5.04166 21.875L14.4167 21.875C15.5656 21.875 16.5 20.9406 16.5 19.7917V15.625H14.4167L14.4167 19.7917L5.04166 19.7917L5.04166 5.20833L14.4167 5.20833V9.375H16.5V5.20833C16.5 4.05937 15.5656 3.12499 14.4167 3.12499L5.04166 3.12499C3.8927 3.12499 2.95833 4.05937 2.95833 5.20833L2.95833 19.7917C2.95833 20.9406 3.8927 21.875 5.04166 21.875Z" fill="black"/>
</svg>
